<?xml version="1.0" encoding="UTF-8"?><svg width="512" height="512" viewBox="0 0 512 512" fill="none" xmlns="http://www.w3.org/2000/svg"><rect x="72" y="96" width="368" height="352" rx="24" fill="#4f46e5" /><rect x="72" y="64" width="368" height="64" rx="16" fill="#818cf8" /><rect x="152" y="32" width="32" height="64" rx="16" fill="#4f46e5" /><rect x="328" y="32" width="32" height="64" rx="16" fill="#4f46e5" /><rect x="104" y="160" width="64" height="64" rx="8" fill="white" opacity="0.9" /><rect x="184" y="160" width="64" height="64" rx="8" fill="white" opacity="0.7" /><rect x="264" y="160" width="64" height="64" rx="8" fill="white" opacity="0.9" /><rect x="344" y="160" width="64" height="64" rx="8" fill="white" opacity="0.7" /><rect x="104" y="240" width="64" height="64" rx="8" fill="white" opacity="0.7" /><rect x="184" y="240" width="64" height="64" rx="8" fill="white" opacity="0.9" /><rect x="264" y="240" width="64" height="64" rx="8" fill="white" opacity="0.7" /><rect x="344" y="240" width="64" height="64" rx="8" fill="white" opacity="0.9" /><rect x="104" y="320" width="64" height="64" rx="8" fill="white" opacity="0.9" /><rect x="184" y="320" width="64" height="64" rx="8" fill="white" opacity="0.7" /><rect x="264" y="320" width="64" height="64" rx="8" fill="white" opacity="0.9" /><rect x="344" y="320" width="64" height="64" rx="8" fill="white" opacity="0.7" /></svg>
